                                    <svg xmlns="http://www.w3.org/2000/svg" viewBox="0 0 800 600" width="100%" height="100%" style="opacity: 0.15; position: absolute;">
                                        <g fill="#ffffff">
                                            <path d="M400 100c-16.5 0-30 13.5-30 30v90h-90c-16.5 0-30 13.5-30 30v100c0 16.5 13.5 30 30 30h90v90c0 16.5 13.5 30 30 30h100c16.5 0 30-13.5 30-30v-90h90c16.5 0 30-13.5 30-30V250c0-16.5-13.5-30-30-30h-90v-90c0-16.5-13.5-30-30-30H400z"/>
                                            <path d="M150 200c-8.3 0-15 6.7-15 15v45H90c-8.3 0-15 6.7-15 15v50c0 8.3 6.7 15 15 15h45v45c0 8.3 6.7 15 15 15h50c8.3 0 15-6.7 15-15v-45h45c8.3 0-15-6.7 15-15v-50c0-8.3-6.7-15-15-15h-45v-45c0-8.3-6.7-15-15-15h-50z"/>
                                            <path d="M650 200c-8.3 0-15 6.7-15 15v45h-45c-8.3 0-15 6.7-15 15v50c0 8.3 6.7 15 15 15h45v45c0 8.3 6.7 15 15 15h50c8.3 0 15-6.7 15-15v-45h45c8.3 0 15-6.7 15-15v-50c0-8.3-6.7-15-15-15h-45v-45c0-8.3-6.7-15-15-15h-50z"/>
                                            <path d="M225 450c-5.5 0-10 4.5-10 10v30h-30c-5.5 0-10 4.5-10 10v35c0 5.5 4.5 10 10 10h30v30c0 5.5 4.5 10 10 10h35c5.5 0 10-4.5 10-10v-30h30c5.5 0 10-4.5 10-10v-35c0-5.5-4.5-10-10-10h-30v-30c0-5.5-4.5-10-10-10h-35z"/>
                                            <path d="M575 450c-5.5 0-10 4.5-10 10v30h-30c-5.5 0-10 4.5-10 10v35c0 5.5 4.5 10 10 10h30v30c0 5.5 4.5 10 10 10h35c5.5 0 10-4.5 10-10v-30h30c5.5 0 10-4.5 10-10v-35c0-5.5-4.5-10-10-10h-30v-30c0-5.5-4.5-10-10-10h-35z"/>
                                        </g>
                                    </svg>